<?xml version="1.0" encoding="us-ascii" standalone="no"?><svg xmlns="http://www.w3.org/2000/svg" xmlns:xlink="http://www.w3.org/1999/xlink" contentStyleType="text/css" height="3171px" preserveAspectRatio="none" style="width:2088px;height:3171px;background:#FFFFFF;" version="1.1" viewBox="0 0 2088 3171" width="2088px" zoomAndPan="magnify"><defs/><g><text fill="#000000" font-family="sans-serif" font-size="14" font-weight="bold" lengthAdjust="spacing" textLength="165.5" x="962.5" y="29.5332">UC-04&#65288;b&#65289;&#25552;&#20132;&#25937;&#21161;&#32467;&#26524;</text><rect fill="none" height="2865.2031" style="stroke:#000000;stroke-width:1.5;" width="1998" x="83.5" y="281.9766"/><rect fill="none" height="479.8125" style="stroke:#000000;stroke-width:1.5;" width="1958" x="103.5" y="494.1406"/><rect fill="none" height="79.0547" style="stroke:#000000;stroke-width:1.5;" width="1750" x="301.5" y="796.8438"/><rect fill="none" height="2014.9844" style="stroke:#000000;stroke-width:1.5;" width="1978" x="93.5" y="1125.1953"/><rect fill="none" height="545.3828" style="stroke:#000000;stroke-width:1.5;" width="1483.5" x="578" y="1708.1953"/><rect fill="none" height="95.4063" style="stroke:#000000;stroke-width:1.5;" width="1463.5" x="588" y="1857.3047"/><rect fill="none" height="279.8672" style="stroke:#000000;stroke-width:1.5;" width="1463.5" x="588" y="1966.7109"/><rect fill="none" height="79.0547" style="stroke:#000000;stroke-width:1.5;" width="1401.5" x="588" y="2624.8516"/><rect fill="none" height="156.1094" style="stroke:#000000;stroke-width:1.5;" width="1948" x="103.5" y="2717.9063"/><line style="stroke:#181818;stroke-width:0.5;stroke-dasharray:5.0,5.0;" x1="41" x2="41" y1="121.2188" y2="3164.1797"/><line style="stroke:#181818;stroke-width:0.5;stroke-dasharray:5.0,5.0;" x1="142.5" x2="142.5" y1="121.2188" y2="3164.1797"/><line style="stroke:#181818;stroke-width:0.5;stroke-dasharray:5.0,5.0;" x1="388.5" x2="388.5" y1="121.2188" y2="3164.1797"/><line style="stroke:#181818;stroke-width:0.5;stroke-dasharray:5.0,5.0;" x1="668" x2="668" y1="121.2188" y2="3164.1797"/><line style="stroke:#181818;stroke-width:0.5;stroke-dasharray:5.0,5.0;" x1="918.5" x2="918.5" y1="121.2188" y2="3164.1797"/><line style="stroke:#181818;stroke-width:0.5;stroke-dasharray:5.0,5.0;" x1="1068.5" x2="1068.5" y1="121.2188" y2="3164.1797"/><line style="stroke:#181818;stroke-width:0.5;stroke-dasharray:5.0,5.0;" x1="1200.5" x2="1200.5" y1="121.2188" y2="3164.1797"/><line style="stroke:#181818;stroke-width:0.5;stroke-dasharray:5.0,5.0;" x1="1333.5" x2="1333.5" y1="121.2188" y2="3164.1797"/><line style="stroke:#181818;stroke-width:0.5;stroke-dasharray:5.0,5.0;" x1="1488.5" x2="1488.5" y1="121.2188" y2="3164.1797"/><line style="stroke:#181818;stroke-width:0.5;stroke-dasharray:5.0,5.0;" x1="1649.5" x2="1649.5" y1="121.2188" y2="3164.1797"/><line style="stroke:#181818;stroke-width:0.5;stroke-dasharray:5.0,5.0;" x1="1810.5" x2="1810.5" y1="121.2188" y2="3164.1797"/><line style="stroke:#181818;stroke-width:0.5;stroke-dasharray:5.0,5.0;" x1="1937.5" x2="1937.5" y1="121.2188" y2="3164.1797"/><line style="stroke:#181818;stroke-width:0.5;stroke-dasharray:5.0,5.0;" x1="2015.5" x2="2015.5" y1="121.2188" y2="3164.1797"/><text fill="#000000" font-family="sans-serif" font-size="14" lengthAdjust="spacing" textLength="66" x="5" y="118.1426">RESCUER</text><ellipse cx="41" cy="52.1094" fill="#E2E2F0" rx="8" ry="8" style="stroke:#181818;stroke-width:0.5;"/><path d="M41,60.1094 L41,87.1094 M28,68.1094 L54,68.1094 M41,87.1094 L28,102.1094 M41,87.1094 L54,102.1094 " fill="none" style="stroke:#181818;stroke-width:0.5;"/><rect fill="#E2E2F0" height="49.2188" rx="2.5" ry="2.5" style="stroke:#181818;stroke-width:0.5;" width="59" x="113.5" y="71"/><text fill="#000000" font-family="sans-serif" font-size="14" lengthAdjust="spacing" textLength="42" x="122" y="92.5332">&#31227;&#21160;&#31471;</text><text fill="#000000" font-family="sans-serif" font-size="14" lengthAdjust="spacing" textLength="45" x="120.5" y="110.1426">UniApp</text><rect fill="#E2E2F0" height="31.6094" rx="2.5" ry="2.5" style="stroke:#181818;stroke-width:0.5;" width="155" x="311.5" y="88.6094"/><text fill="#000000" font-family="sans-serif" font-size="14" lengthAdjust="spacing" textLength="141" x="318.5" y="110.1426">RescueTaskController</text><rect fill="#E2E2F0" height="31.6094" rx="2.5" ry="2.5" style="stroke:#181818;stroke-width:0.5;" width="140" x="598" y="88.6094"/><text fill="#000000" font-family="sans-serif" font-size="14" lengthAdjust="spacing" textLength="126" x="605" y="110.1426">RescueTaskService</text><rect fill="#E2E2F0" height="31.6094" rx="2.5" ry="2.5" style="stroke:#181818;stroke-width:0.5;" width="141" x="848.5" y="88.6094"/><text fill="#000000" font-family="sans-serif" font-size="14" lengthAdjust="spacing" textLength="127" x="855.5" y="110.1426">RescueTaskMapper</text><rect fill="#E2E2F0" height="31.6094" rx="2.5" ry="2.5" style="stroke:#181818;stroke-width:0.5;" width="139" x="999.5" y="88.6094"/><text fill="#000000" font-family="sans-serif" font-size="14" lengthAdjust="spacing" textLength="125" x="1006.5" y="110.1426">RescueClueMapper</text><rect fill="#E2E2F0" height="31.6094" rx="2.5" ry="2.5" style="stroke:#181818;stroke-width:0.5;" width="104" x="1148.5" y="88.6094"/><text fill="#000000" font-family="sans-serif" font-size="14" lengthAdjust="spacing" textLength="90" x="1155.5" y="110.1426">AnimalMapper</text><rect fill="#E2E2F0" height="31.6094" rx="2.5" ry="2.5" style="stroke:#181818;stroke-width:0.5;" width="142" x="1262.5" y="88.6094"/><text fill="#000000" font-family="sans-serif" font-size="14" lengthAdjust="spacing" textLength="128" x="1269.5" y="110.1426">AnimalImageMapper</text><rect fill="#E2E2F0" height="31.6094" rx="2.5" ry="2.5" style="stroke:#181818;stroke-width:0.5;" width="148" x="1414.5" y="88.6094"/><text fill="#000000" font-family="sans-serif" font-size="14" lengthAdjust="spacing" textLength="134" x="1421.5" y="110.1426">HealthRecordMapper</text><rect fill="#E2E2F0" height="31.6094" rx="2.5" ry="2.5" style="stroke:#181818;stroke-width:0.5;" width="154" x="1572.5" y="88.6094"/><text fill="#000000" font-family="sans-serif" font-size="14" lengthAdjust="spacing" textLength="140" x="1579.5" y="110.1426">TemporaryFileMapper</text><rect fill="#E2E2F0" height="31.6094" rx="2.5" ry="2.5" style="stroke:#181818;stroke-width:0.5;" width="149" x="1736.5" y="88.6094"/><text fill="#000000" font-family="sans-serif" font-size="14" lengthAdjust="spacing" textLength="135" x="1743.5" y="110.1426">OperationLogMapper</text><rect fill="#E2E2F0" height="31.6094" rx="2.5" ry="2.5" style="stroke:#181818;stroke-width:0.5;" width="84" x="1895.5" y="88.6094"/><text fill="#000000" font-family="sans-serif" font-size="14" lengthAdjust="spacing" textLength="70" x="1902.5" y="110.1426">FileService</text><text fill="#000000" font-family="sans-serif" font-size="14" lengthAdjust="spacing" textLength="46" x="1989.5" y="118.1426">MySQL</text><path d="M1997.5,67.6094 C1997.5,57.6094 2015.5,57.6094 2015.5,57.6094 C2015.5,57.6094 2033.5,57.6094 2033.5,67.6094 L2033.5,93.6094 C2033.5,103.6094 2015.5,103.6094 2015.5,103.6094 C2015.5,103.6094 1997.5,103.6094 1997.5,93.6094 L1997.5,67.6094 " fill="#E2E2F0" style="stroke:#181818;stroke-width:1.5;"/><path d="M1997.5,67.6094 C1997.5,77.6094 2015.5,77.6094 2015.5,77.6094 C2015.5,77.6094 2033.5,77.6094 2033.5,67.6094 " fill="none" style="stroke:#181818;stroke-width:1.5;"/><path d="M92,136.2188 L92,178.2188 L440,178.2188 L440,146.2188 L430,136.2188 L92,136.2188 " fill="#FEFFDD" style="stroke:#181818;stroke-width:0.5;"/><path d="M430,136.2188 L430,146.2188 L440,146.2188 L430,136.2188 " fill="#FEFFDD" style="stroke:#181818;stroke-width:0.5;"/><text fill="#000000" font-family="sans-serif" font-size="13" lengthAdjust="spacing" textLength="256" x="133.5" y="154.7139">JWT &#35748;&#35777;&#12289;&#36134;&#21495;&#29366;&#24577;&#26816;&#26597;&#21644; RBAC &#26435;&#38480;&#26657;&#39564;</text><text fill="#000000" font-family="sans-serif" font-size="13" lengthAdjust="spacing" textLength="221" x="133.5" y="171.0654">&#30001;&#20844;&#20849;&#23433;&#20840;&#38142;&#23436;&#25104;&#65292;&#26412;&#22270;&#19981;&#37325;&#22797;&#23637;&#24320;&#12290;</text><polygon fill="#181818" points="131,202.2734,141,206.2734,131,210.2734,135,206.2734" style="stroke:#181818;stroke-width:1.0;"/><line style="stroke:#181818;stroke-width:1.0;" x1="41" x2="137" y1="206.2734" y2="206.2734"/><text fill="#000000" font-family="sans-serif" font-size="13" lengthAdjust="spacing" textLength="78" x="48" y="201.417">&#25552;&#20132;&#25937;&#21161;&#32467;&#26524;</text><polygon fill="#181818" points="377,232.625,387,236.625,377,240.625,381,236.625" style="stroke:#181818;stroke-width:1.0;"/><line style="stroke:#181818;stroke-width:1.0;" x1="143" x2="383" y1="236.625" y2="236.625"/><text fill="#000000" font-family="sans-serif" font-size="13" lengthAdjust="spacing" textLength="222" x="150" y="231.7686">POST /api/rescue-tasks/{taskId}/result</text><polygon fill="#181818" points="656,262.9766,666,266.9766,656,270.9766,660,266.9766" style="stroke:#181818;stroke-width:1.0;"/><line style="stroke:#181818;stroke-width:1.0;" x1="389" x2="662" y1="266.9766" y2="266.9766"/><text fill="#000000" font-family="sans-serif" font-size="13" lengthAdjust="spacing" textLength="255" x="396" y="262.1201">submitResult(taskId, currentUserId, request)</text><path d="M83.5,281.9766 L144.5,281.9766 L144.5,290.3281 L134.5,300.3281 L83.5,300.3281 L83.5,281.9766 " fill="#EEEEEE" style="stroke:#000000;stroke-width:1.5;"/><rect fill="none" height="2865.2031" style="stroke:#000000;stroke-width:1.5;" width="1998" x="83.5" y="281.9766"/><text fill="#000000" font-family="sans-serif" font-size="13" font-weight="bold" lengthAdjust="spacing" textLength="16" x="98.5" y="296.4717">alt</text><text fill="#000000" font-family="sans-serif" font-size="11" font-weight="bold" lengthAdjust="spacing" textLength="90" x="159.5" y="295.3955">[result = FAILED]</text><polygon fill="#181818" points="2003.5,318.6797,2013.5,322.6797,2003.5,326.6797,2007.5,322.6797" style="stroke:#181818;stroke-width:1.0;"/><line style="stroke:#181818;stroke-width:1.0;" x1="668" x2="2009.5" y1="322.6797" y2="322.6797"/><text fill="#000000" font-family="sans-serif" font-size="13" lengthAdjust="spacing" textLength="40" x="675" y="317.8232">BEGIN</text><polygon fill="#181818" points="907,414.4375,917,418.4375,907,422.4375,911,418.4375" style="stroke:#181818;stroke-width:1.0;"/><line style="stroke:#181818;stroke-width:1.0;" x1="668" x2="913" y1="418.4375" y2="418.4375"/><text fill="#000000" font-family="sans-serif" font-size="13" lengthAdjust="spacing" textLength="118" x="675" y="348.1748">conditional UPDATE</text><text fill="#000000" font-family="sans-serif" font-size="13" lengthAdjust="spacing" textLength="106" x="675" y="364.5264">WHERE id=taskId</text><text fill="#000000" font-family="sans-serif" font-size="13" lengthAdjust="spacing" textLength="176" x="675" y="380.8779">AND rescuer_id=currentUserId</text><text fill="#000000" font-family="sans-serif" font-size="13" lengthAdjust="spacing" textLength="168" x="675" y="397.2295">AND status=IN_PROGRESS</text><text fill="#000000" font-family="sans-serif" font-size="13" lengthAdjust="spacing" textLength="227" x="675" y="413.5811">&#8594; FAILED + failureReason + finishedAt</text><polygon fill="#181818" points="2003.5,444.7891,2013.5,448.7891,2003.5,452.7891,2007.5,448.7891" style="stroke:#181818;stroke-width:1.0;"/><line style="stroke:#181818;stroke-width:1.0;" x1="919" x2="2009.5" y1="448.7891" y2="448.7891"/><text fill="#000000" font-family="sans-serif" font-size="13" lengthAdjust="spacing" textLength="52" x="926" y="443.9326">UPDATE</text><polygon fill="#181818" points="930,475.1406,920,479.1406,930,483.1406,926,479.1406" style="stroke:#181818;stroke-width:1.0;"/><line style="stroke:#181818;stroke-width:1.0;stroke-dasharray:2.0,2.0;" x1="924" x2="2014.5" y1="479.1406" y2="479.1406"/><text fill="#000000" font-family="sans-serif" font-size="13" lengthAdjust="spacing" textLength="77" x="936" y="474.2842">affectedRows</text><path d="M103.5,494.1406 L164.5,494.1406 L164.5,502.4922 L154.5,512.4922 L103.5,512.4922 L103.5,494.1406 " fill="#EEEEEE" style="stroke:#000000;stroke-width:1.5;"/><rect fill="none" height="479.8125" style="stroke:#000000;stroke-width:1.5;" width="1958" x="103.5" y="494.1406"/><text fill="#000000" font-family="sans-serif" font-size="13" font-weight="bold" lengthAdjust="spacing" textLength="16" x="118.5" y="508.6357">alt</text><text fill="#000000" font-family="sans-serif" font-size="11" font-weight="bold" lengthAdjust="spacing" textLength="102" x="179.5" y="507.5596">[affectedRows = 0]</text><polygon fill="#181818" points="907,530.8438,917,534.8438,907,538.8438,911,534.8438" style="stroke:#181818;stroke-width:1.0;"/><line style="stroke:#181818;stroke-width:1.0;" x1="668" x2="913" y1="534.8438" y2="534.8438"/><text fill="#000000" font-family="sans-serif" font-size="13" lengthAdjust="spacing" textLength="82" x="675" y="529.9873">requery taskId</text><polygon fill="#181818" points="2003.5,561.1953,2013.5,565.1953,2003.5,569.1953,2007.5,565.1953" style="stroke:#181818;stroke-width:1.0;"/><line style="stroke:#181818;stroke-width:1.0;" x1="919" x2="2009.5" y1="565.1953" y2="565.1953"/><text fill="#000000" font-family="sans-serif" font-size="13" lengthAdjust="spacing" textLength="50" x="926" y="560.3389">SELECT</text><polygon fill="#181818" points="930,591.5469,920,595.5469,930,599.5469,926,595.5469" style="stroke:#181818;stroke-width:1.0;"/><line style="stroke:#181818;stroke-width:1.0;stroke-dasharray:2.0,2.0;" x1="924" x2="2014.5" y1="595.5469" y2="595.5469"/><text fill="#000000" font-family="sans-serif" font-size="13" lengthAdjust="spacing" textLength="60" x="936" y="590.6904">row / none</text><polygon fill="#181818" points="2003.5,621.8984,2013.5,625.8984,2003.5,629.8984,2007.5,625.8984" style="stroke:#181818;stroke-width:1.0;"/><line style="stroke:#181818;stroke-width:1.0;" x1="668" x2="2009.5" y1="625.8984" y2="625.8984"/><text fill="#000000" font-family="sans-serif" font-size="13" lengthAdjust="spacing" textLength="69" x="675" y="621.042">ROLLBACK</text><polygon fill="#181818" points="400,652.25,390,656.25,400,660.25,396,656.25" style="stroke:#181818;stroke-width:1.0;"/><line style="stroke:#181818;stroke-width:1.0;stroke-dasharray:2.0,2.0;" x1="394" x2="667" y1="656.25" y2="656.25"/><text fill="#000000" font-family="sans-serif" font-size="13" lengthAdjust="spacing" textLength="82" x="406" y="651.3936">40401 / 40901</text><line style="stroke:#000000;stroke-width:1.0;stroke-dasharray:2.0,2.0;" x1="103.5" x2="2061.5" y1="665.25" y2="665.25"/><text fill="#000000" font-family="sans-serif" font-size="11" font-weight="bold" lengthAdjust="spacing" textLength="102" x="108.5" y="676.6689">[affectedRows = 1]</text><polygon fill="#181818" points="1799,747.4922,1809,751.4922,1799,755.4922,1803,751.4922" style="stroke:#181818;stroke-width:1.0;"/><line style="stroke:#181818;stroke-width:1.0;" x1="668" x2="1805" y1="751.4922" y2="751.4922"/><text fill="#000000" font-family="sans-serif" font-size="13" lengthAdjust="spacing" textLength="127" x="675" y="697.5811">INSERT OperationLog</text><text fill="#000000" font-family="sans-serif" font-size="13" lengthAdjust="spacing" textLength="217" x="675" y="713.9326">RESCUE_TASK + RESCUE_FAILED</text><text fill="#000000" font-family="sans-serif" font-size="13" lengthAdjust="spacing" textLength="149" x="675" y="730.2842">IN_PROGRESS&#8594;FAILED</text><text fill="#000000" font-family="sans-serif" font-size="13" lengthAdjust="spacing" textLength="125" x="675" y="746.6357">reason=failureReason</text><polygon fill="#181818" points="2003.5,777.8438,2013.5,781.8438,2003.5,785.8438,2007.5,781.8438" style="stroke:#181818;stroke-width:1.0;"/><line style="stroke:#181818;stroke-width:1.0;" x1="1811" x2="2009.5" y1="781.8438" y2="781.8438"/><text fill="#000000" font-family="sans-serif" font-size="13" lengthAdjust="spacing" textLength="46" x="1818" y="776.9873">INSERT</text><path d="M301.5,796.8438 L382.5,796.8438 L382.5,805.1953 L372.5,815.1953 L301.5,815.1953 L301.5,796.8438 " fill="#EEEEEE" style="stroke:#000000;stroke-width:1.5;"/><rect fill="none" height="79.0547" style="stroke:#000000;stroke-width:1.5;" width="1750" x="301.5" y="796.8438"/><text fill="#000000" font-family="sans-serif" font-size="13" font-weight="bold" lengthAdjust="spacing" textLength="36" x="316.5" y="811.3389">break</text><text fill="#000000" font-family="sans-serif" font-size="11" font-weight="bold" lengthAdjust="spacing" textLength="225.125" x="397.5" y="810.2627">[&#20219;&#19968;&#25968;&#25454;&#24211;&#20889;&#20837;&#25110; OperationLog &#20889;&#20837;&#22833;&#36133;]</text><polygon fill="#181818" points="2003.5,833.5469,2013.5,837.5469,2003.5,841.5469,2007.5,837.5469" style="stroke:#181818;stroke-width:1.0;"/><line style="stroke:#181818;stroke-width:1.0;" x1="668" x2="2009.5" y1="837.5469" y2="837.5469"/><text fill="#000000" font-family="sans-serif" font-size="13" lengthAdjust="spacing" textLength="69" x="675" y="832.6904">ROLLBACK</text><polygon fill="#181818" points="400,863.8984,390,867.8984,400,871.8984,396,867.8984" style="stroke:#181818;stroke-width:1.0;"/><line style="stroke:#181818;stroke-width:1.0;stroke-dasharray:2.0,2.0;" x1="394" x2="667" y1="867.8984" y2="867.8984"/><text fill="#000000" font-family="sans-serif" font-size="13" lengthAdjust="spacing" textLength="78" x="406" y="863.042">&#32479;&#19968;&#19994;&#21153;&#24322;&#24120;</text><polygon fill="#181818" points="2003.5,901.25,2013.5,905.25,2003.5,909.25,2007.5,905.25" style="stroke:#181818;stroke-width:1.0;"/><line style="stroke:#181818;stroke-width:1.0;" x1="668" x2="2009.5" y1="905.25" y2="905.25"/><text fill="#000000" font-family="sans-serif" font-size="13" lengthAdjust="spacing" textLength="51" x="675" y="900.3936">COMMIT</text><polygon fill="#181818" points="400,931.6016,390,935.6016,400,939.6016,396,935.6016" style="stroke:#181818;stroke-width:1.0;"/><line style="stroke:#181818;stroke-width:1.0;stroke-dasharray:2.0,2.0;" x1="394" x2="667" y1="935.6016" y2="935.6016"/><text fill="#000000" font-family="sans-serif" font-size="13" lengthAdjust="spacing" textLength="126" x="406" y="930.7451">StateActionResponse</text><polygon fill="#181818" points="154,961.9531,144,965.9531,154,969.9531,150,965.9531" style="stroke:#181818;stroke-width:1.0;"/><line style="stroke:#181818;stroke-width:1.0;stroke-dasharray:2.0,2.0;" x1="148" x2="388" y1="965.9531" y2="965.9531"/><text fill="#000000" font-family="sans-serif" font-size="13" lengthAdjust="spacing" textLength="44" x="160" y="961.0967">200 OK</text><line style="stroke:#000000;stroke-width:1.0;stroke-dasharray:2.0,2.0;" x1="83.5" x2="2081.5" y1="981.9531" y2="981.9531"/><text fill="#000000" font-family="sans-serif" font-size="11" font-weight="bold" lengthAdjust="spacing" textLength="103" x="88.5" y="993.3721">[result = SUCCESS]</text><polygon fill="#181818" points="2003.5,1015.1406,2013.5,1019.1406,2003.5,1023.1406,2007.5,1019.1406" style="stroke:#181818;stroke-width:1.0;"/><line style="stroke:#181818;stroke-width:1.0;" x1="668" x2="2009.5" y1="1019.1406" y2="1019.1406"/><text fill="#000000" font-family="sans-serif" font-size="13" lengthAdjust="spacing" textLength="40" x="675" y="1014.2842">BEGIN</text><polygon fill="#181818" points="907,1045.4922,917,1049.4922,907,1053.4922,911,1049.4922" style="stroke:#181818;stroke-width:1.0;"/><line style="stroke:#181818;stroke-width:1.0;" x1="668" x2="913" y1="1049.4922" y2="1049.4922"/><text fill="#000000" font-family="sans-serif" font-size="13" lengthAdjust="spacing" textLength="169" x="675" y="1044.6357">SELECT Task FOR UPDATE</text><polygon fill="#181818" points="2003.5,1075.8438,2013.5,1079.8438,2003.5,1083.8438,2007.5,1079.8438" style="stroke:#181818;stroke-width:1.0;"/><line style="stroke:#181818;stroke-width:1.0;" x1="919" x2="2009.5" y1="1079.8438" y2="1079.8438"/><text fill="#000000" font-family="sans-serif" font-size="13" lengthAdjust="spacing" textLength="153" x="926" y="1074.9873">SELECT ... FOR UPDATE</text><polygon fill="#181818" points="930,1106.1953,920,1110.1953,930,1114.1953,926,1110.1953" style="stroke:#181818;stroke-width:1.0;"/><line style="stroke:#181818;stroke-width:1.0;stroke-dasharray:2.0,2.0;" x1="924" x2="2014.5" y1="1110.1953" y2="1110.1953"/><text fill="#000000" font-family="sans-serif" font-size="13" lengthAdjust="spacing" textLength="110" x="936" y="1105.3389">locked Task / none</text><path d="M93.5,1125.1953 L154.5,1125.1953 L154.5,1133.5469 L144.5,1143.5469 L93.5,1143.5469 L93.5,1125.1953 " fill="#EEEEEE" style="stroke:#000000;stroke-width:1.5;"/><rect fill="none" height="2014.9844" style="stroke:#000000;stroke-width:1.5;" width="1978" x="93.5" y="1125.1953"/><text fill="#000000" font-family="sans-serif" font-size="13" font-weight="bold" lengthAdjust="spacing" textLength="16" x="108.5" y="1139.6904">alt</text><text fill="#000000" font-family="sans-serif" font-size="11" font-weight="bold" lengthAdjust="spacing" textLength="123.4063" x="169.5" y="1138.6143">[Task&#19981;&#23384;&#22312; / &#38750;&#36127;&#36131;&#20154;]</text><polygon fill="#181818" points="2003.5,1161.8984,2013.5,1165.8984,2003.5,1169.8984,2007.5,1165.8984" style="stroke:#181818;stroke-width:1.0;"/><line style="stroke:#181818;stroke-width:1.0;" x1="668" x2="2009.5" y1="1165.8984" y2="1165.8984"/><text fill="#000000" font-family="sans-serif" font-size="13" lengthAdjust="spacing" textLength="69" x="675" y="1161.042">ROLLBACK</text><polygon fill="#181818" points="400,1192.25,390,1196.25,400,1200.25,396,1196.25" style="stroke:#181818;stroke-width:1.0;"/><line style="stroke:#181818;stroke-width:1.0;stroke-dasharray:2.0,2.0;" x1="394" x2="667" y1="1196.25" y2="1196.25"/><text fill="#000000" font-family="sans-serif" font-size="13" lengthAdjust="spacing" textLength="197" x="406" y="1191.3936">40401 RESOURCE_NOT_FOUND</text><line style="stroke:#000000;stroke-width:1.0;stroke-dasharray:2.0,2.0;" x1="93.5" x2="2071.5" y1="1205.25" y2="1205.25"/><text fill="#000000" font-family="sans-serif" font-size="11" font-weight="bold" lengthAdjust="spacing" textLength="161" x="98.5" y="1216.6689">[Task.status != IN_PROGRESS]</text><polygon fill="#181818" points="2003.5,1238.4375,2013.5,1242.4375,2003.5,1246.4375,2007.5,1242.4375" style="stroke:#181818;stroke-width:1.0;"/><line style="stroke:#181818;stroke-width:1.0;" x1="668" x2="2009.5" y1="1242.4375" y2="1242.4375"/><text fill="#000000" font-family="sans-serif" font-size="13" lengthAdjust="spacing" textLength="69" x="675" y="1237.5811">ROLLBACK</text><polygon fill="#181818" points="400,1268.7891,390,1272.7891,400,1276.7891,396,1272.7891" style="stroke:#181818;stroke-width:1.0;"/><line style="stroke:#181818;stroke-width:1.0;stroke-dasharray:2.0,2.0;" x1="394" x2="667" y1="1272.7891" y2="1272.7891"/><text fill="#000000" font-family="sans-serif" font-size="13" lengthAdjust="spacing" textLength="222" x="406" y="1267.9326">40901 BUSINESS_STATE_CONFLICT</text><line style="stroke:#000000;stroke-width:1.0;stroke-dasharray:2.0,2.0;" x1="93.5" x2="2071.5" y1="1281.7891" y2="1281.7891"/><text fill="#000000" font-family="sans-serif" font-size="11" font-weight="bold" lengthAdjust="spacing" textLength="57.6875" x="98.5" y="1293.208">[Task&#21512;&#27861;]</text><line style="stroke:#181818;stroke-width:1.0;" x1="668" x2="710" y1="1318.9766" y2="1318.9766"/><line style="stroke:#181818;stroke-width:1.0;" x1="710" x2="710" y1="1318.9766" y2="1331.9766"/><line style="stroke:#181818;stroke-width:1.0;" x1="669" x2="710" y1="1331.9766" y2="1331.9766"/><polygon fill="#181818" points="679,1327.9766,669,1331.9766,679,1335.9766,675,1331.9766" style="stroke:#181818;stroke-width:1.0;"/><text fill="#000000" font-family="sans-serif" font-size="13" lengthAdjust="spacing" textLength="213" x="675" y="1314.1201">clueId &#20165;&#20174; locked Task.clue_id &#33719;&#21462;</text><polygon fill="#181818" points="1057,1358.3281,1067,1362.3281,1057,1366.3281,1061,1362.3281" style="stroke:#181818;stroke-width:1.0;"/><line style="stroke:#181818;stroke-width:1.0;" x1="668" x2="1063" y1="1362.3281" y2="1362.3281"/><text fill="#000000" font-family="sans-serif" font-size="13" lengthAdjust="spacing" textLength="167" x="675" y="1357.4717">SELECT Clue FOR UPDATE</text><polygon fill="#181818" points="2003.5,1388.6797,2013.5,1392.6797,2003.5,1396.6797,2007.5,1392.6797" style="stroke:#181818;stroke-width:1.0;"/><line style="stroke:#181818;stroke-width:1.0;" x1="1069" x2="2009.5" y1="1392.6797" y2="1392.6797"/><text fill="#000000" font-family="sans-serif" font-size="13" lengthAdjust="spacing" textLength="153" x="1076" y="1387.8232">SELECT ... FOR UPDATE</text><polygon fill="#181818" points="1080,1419.0313,1070,1423.0313,1080,1427.0313,1076,1423.0313" style="stroke:#181818;stroke-width:1.0;"/><line style="stroke:#181818;stroke-width:1.0;stroke-dasharray:2.0,2.0;" x1="1074" x2="2014.5" y1="1423.0313" y2="1423.0313"/><text fill="#000000" font-family="sans-serif" font-size="13" lengthAdjust="spacing" textLength="68" x="1086" y="1418.1748">locked Clue</text><line style="stroke:#181818;stroke-width:1.0;" x1="668" x2="710" y1="1453.3828" y2="1453.3828"/><line style="stroke:#181818;stroke-width:1.0;" x1="710" x2="710" y1="1453.3828" y2="1466.3828"/><line style="stroke:#181818;stroke-width:1.0;" x1="669" x2="710" y1="1466.3828" y2="1466.3828"/><polygon fill="#181818" points="679,1462.3828,669,1466.3828,679,1470.3828,675,1466.3828" style="stroke:#181818;stroke-width:1.0;"/><text fill="#000000" font-family="sans-serif" font-size="13" lengthAdjust="spacing" textLength="184" x="675" y="1448.5264">&#26657;&#39564; Clue.status=CONVERTED</text><line style="stroke:#181818;stroke-width:1.0;" x1="668" x2="710" y1="1529.4375" y2="1529.4375"/><line style="stroke:#181818;stroke-width:1.0;" x1="710" x2="710" y1="1529.4375" y2="1542.4375"/><line style="stroke:#181818;stroke-width:1.0;" x1="669" x2="710" y1="1542.4375" y2="1542.4375"/><polygon fill="#181818" points="679,1538.4375,669,1542.4375,679,1546.4375,675,1542.4375" style="stroke:#181818;stroke-width:1.0;"/><text fill="#000000" font-family="sans-serif" font-size="13" lengthAdjust="spacing" textLength="102" x="675" y="1491.8779">&#26657;&#39564; animals &gt;=1</text><text fill="#000000" font-family="sans-serif" font-size="13" lengthAdjust="spacing" textLength="160" x="675" y="1508.2295">&#20840;&#37096; imageTokens &#21512;&#35745;&lt;=9</text><text fill="#000000" font-family="sans-serif" font-size="13" lengthAdjust="spacing" textLength="118" x="675" y="1524.5811">&#20840;&#35831;&#27714; token &#19981;&#37325;&#22797;</text><polygon fill="#181818" points="1637.5,1585.1406,1647.5,1589.1406,1637.5,1593.1406,1641.5,1589.1406" style="stroke:#181818;stroke-width:1.0;"/><line style="stroke:#181818;stroke-width:1.0;" x1="668" x2="1643.5" y1="1589.1406" y2="1589.1406"/><text fill="#000000" font-family="sans-serif" font-size="13" lengthAdjust="spacing" textLength="93" x="675" y="1567.9326">SELECT tokens</text><text fill="#000000" font-family="sans-serif" font-size="13" lengthAdjust="spacing" textLength="200" x="675" y="1584.2842">ORDER BY id ASC FOR UPDATE</text><polygon fill="#181818" points="2003.5,1615.4922,2013.5,1619.4922,2003.5,1623.4922,2007.5,1619.4922" style="stroke:#181818;stroke-width:1.0;"/><line style="stroke:#181818;stroke-width:1.0;" x1="1649.5" x2="2009.5" y1="1619.4922" y2="1619.4922"/><text fill="#000000" font-family="sans-serif" font-size="13" lengthAdjust="spacing" textLength="153" x="1656.5" y="1614.6357">SELECT ... FOR UPDATE</text><polygon fill="#181818" points="1660.5,1645.8438,1650.5,1649.8438,1660.5,1653.8438,1656.5,1649.8438" style="stroke:#181818;stroke-width:1.0;"/><line style="stroke:#181818;stroke-width:1.0;stroke-dasharray:2.0,2.0;" x1="1654.5" x2="2014.5" y1="1649.8438" y2="1649.8438"/><text fill="#000000" font-family="sans-serif" font-size="13" lengthAdjust="spacing" textLength="27" x="1666.5" y="1644.9873">rows</text><line style="stroke:#181818;stroke-width:1.0;" x1="668" x2="710" y1="1680.1953" y2="1680.1953"/><line style="stroke:#181818;stroke-width:1.0;" x1="710" x2="710" y1="1680.1953" y2="1693.1953"/><line style="stroke:#181818;stroke-width:1.0;" x1="669" x2="710" y1="1693.1953" y2="1693.1953"/><polygon fill="#181818" points="679,1689.1953,669,1693.1953,679,1697.1953,675,1693.1953" style="stroke:#181818;stroke-width:1.0;"/><text fill="#000000" font-family="sans-serif" font-size="13" lengthAdjust="spacing" textLength="200" x="675" y="1675.3389">&#26657;&#39564; owner/status/expiry/type/size</text><path d="M578,1708.1953 L651,1708.1953 L651,1716.5469 L641,1726.5469 L578,1726.5469 L578,1708.1953 " fill="#EEEEEE" style="stroke:#000000;stroke-width:1.5;"/><rect fill="none" height="545.3828" style="stroke:#000000;stroke-width:1.5;" width="1483.5" x="578" y="1708.1953"/><text fill="#000000" font-family="sans-serif" font-size="13" font-weight="bold" lengthAdjust="spacing" textLength="28" x="593" y="1722.6904">loop</text><text fill="#000000" font-family="sans-serif" font-size="11" font-weight="bold" lengthAdjust="spacing" textLength="71.6875" x="666" y="1721.6143">[&#27599;&#20010; Animal]</text><polygon fill="#181818" points="1188.5,1777.6016,1198.5,1781.6016,1188.5,1785.6016,1192.5,1781.6016" style="stroke:#181818;stroke-width:1.0;"/><line style="stroke:#181818;stroke-width:1.0;" x1="668" x2="1194.5" y1="1781.6016" y2="1781.6016"/><text fill="#000000" font-family="sans-serif" font-size="13" lengthAdjust="spacing" textLength="90" x="675" y="1744.042">INSERT Animal</text><text fill="#000000" font-family="sans-serif" font-size="13" lengthAdjust="spacing" textLength="169" x="675" y="1760.3936">rescueTaskId=locked Task.id</text><text fill="#000000" font-family="sans-serif" font-size="13" lengthAdjust="spacing" textLength="170" x="675" y="1776.7451">status=TREATING, version=0</text><polygon fill="#181818" points="2003.5,1807.9531,2013.5,1811.9531,2003.5,1815.9531,2007.5,1811.9531" style="stroke:#181818;stroke-width:1.0;"/><line style="stroke:#181818;stroke-width:1.0;" x1="1200.5" x2="2009.5" y1="1811.9531" y2="1811.9531"/><text fill="#000000" font-family="sans-serif" font-size="13" lengthAdjust="spacing" textLength="46" x="1207.5" y="1807.0967">INSERT</text><polygon fill="#181818" points="1211.5,1838.3047,1201.5,1842.3047,1211.5,1846.3047,1207.5,1842.3047" style="stroke:#181818;stroke-width:1.0;"/><line style="stroke:#181818;stroke-width:1.0;stroke-dasharray:2.0,2.0;" x1="1205.5" x2="2014.5" y1="1842.3047" y2="1842.3047"/><text fill="#000000" font-family="sans-serif" font-size="13" lengthAdjust="spacing" textLength="48" x="1217.5" y="1837.4482">animalId</text><path d="M588,1857.3047 L653,1857.3047 L653,1865.6563 L643,1875.6563 L588,1875.6563 L588,1857.3047 " fill="#EEEEEE" style="stroke:#000000;stroke-width:1.5;"/><rect fill="none" height="95.4063" style="stroke:#000000;stroke-width:1.5;" width="1463.5" x="588" y="1857.3047"/><text fill="#000000" font-family="sans-serif" font-size="13" font-weight="bold" lengthAdjust="spacing" textLength="20" x="603" y="1871.7998">opt</text><text fill="#000000" font-family="sans-serif" font-size="11" font-weight="bold" lengthAdjust="spacing" textLength="135.6875" x="668" y="1870.7236">[initialHealthRecord &#38750;&#31354;]</text><polygon fill="#181818" points="1476.5,1910.3594,1486.5,1914.3594,1476.5,1918.3594,1480.5,1914.3594" style="stroke:#181818;stroke-width:1.0;"/><line style="stroke:#181818;stroke-width:1.0;" x1="668" x2="1482.5" y1="1914.3594" y2="1914.3594"/><text fill="#000000" font-family="sans-serif" font-size="13" lengthAdjust="spacing" textLength="128" x="675" y="1893.1514">INSERT HealthRecord</text><text fill="#000000" font-family="sans-serif" font-size="13" lengthAdjust="spacing" textLength="142" x="675" y="1909.5029">recorderId=currentUserId</text><polygon fill="#181818" points="2003.5,1940.7109,2013.5,1944.7109,2003.5,1948.7109,2007.5,1944.7109" style="stroke:#181818;stroke-width:1.0;"/><line style="stroke:#181818;stroke-width:1.0;" x1="1488.5" x2="2009.5" y1="1944.7109" y2="1944.7109"/><text fill="#000000" font-family="sans-serif" font-size="13" lengthAdjust="spacing" textLength="46" x="1495.5" y="1939.8545">INSERT</text><path d="M588,1966.7109 L661,1966.7109 L661,1975.0625 L651,1985.0625 L588,1985.0625 L588,1966.7109 " fill="#EEEEEE" style="stroke:#000000;stroke-width:1.5;"/><rect fill="none" height="279.8672" style="stroke:#000000;stroke-width:1.5;" width="1463.5" x="588" y="1966.7109"/><text fill="#000000" font-family="sans-serif" font-size="13" font-weight="bold" lengthAdjust="spacing" textLength="28" x="603" y="1981.2061">loop</text><text fill="#000000" font-family="sans-serif" font-size="11" font-weight="bold" lengthAdjust="spacing" textLength="224.75" x="676" y="1980.1299">[&#35813; Animal &#30340; imageTokens &#23458;&#25143;&#31471;&#21407;&#39034;&#24207;]</text><polygon fill="#181818" points="1925.5,2003.4141,1935.5,2007.4141,1925.5,2011.4141,1929.5,2007.4141" style="stroke:#181818;stroke-width:1.0;"/><line style="stroke:#181818;stroke-width:1.0;" x1="668" x2="1931.5" y1="2007.4141" y2="2007.4141"/><text fill="#000000" font-family="sans-serif" font-size="13" lengthAdjust="spacing" textLength="173" x="675" y="2002.5576">generateFormalPath(ANIMAL)</text><polygon fill="#181818" points="679,2033.7656,669,2037.7656,679,2041.7656,675,2037.7656" style="stroke:#181818;stroke-width:1.0;"/><line style="stroke:#181818;stroke-width:1.0;stroke-dasharray:2.0,2.0;" x1="673" x2="1936.5" y1="2037.7656" y2="2037.7656"/><text fill="#000000" font-family="sans-serif" font-size="13" lengthAdjust="spacing" textLength="62" x="685" y="2032.9092">formalPath</text><polygon fill="#181818" points="1321.5,2080.4688,1331.5,2084.4688,1321.5,2088.4688,1325.5,2084.4688" style="stroke:#181818;stroke-width:1.0;"/><line style="stroke:#181818;stroke-width:1.0;" x1="668" x2="1327.5" y1="2084.4688" y2="2084.4688"/><text fill="#000000" font-family="sans-serif" font-size="13" lengthAdjust="spacing" textLength="125" x="675" y="2063.2607">INSERT AnimalImage</text><text fill="#000000" font-family="sans-serif" font-size="13" lengthAdjust="spacing" textLength="86" x="675" y="2079.6123">sortOrder=1..N</text><polygon fill="#181818" points="2003.5,2110.8203,2013.5,2114.8203,2003.5,2118.8203,2007.5,2114.8203" style="stroke:#181818;stroke-width:1.0;"/><line style="stroke:#181818;stroke-width:1.0;" x1="1333.5" x2="2009.5" y1="2114.8203" y2="2114.8203"/><text fill="#000000" font-family="sans-serif" font-size="13" lengthAdjust="spacing" textLength="46" x="1340.5" y="2109.9639">INSERT</text><polygon fill="#181818" points="1637.5,2173.875,1647.5,2177.875,1637.5,2181.875,1641.5,2177.875" style="stroke:#181818;stroke-width:1.0;"/><line style="stroke:#181818;stroke-width:1.0;" x1="668" x2="1643.5" y1="2177.875" y2="2177.875"/><text fill="#000000" font-family="sans-serif" font-size="13" lengthAdjust="spacing" textLength="138" x="675" y="2140.3154">UPDATE TemporaryFile</text><text fill="#000000" font-family="sans-serif" font-size="13" lengthAdjust="spacing" textLength="198" x="675" y="2156.667">BOUND + businessType=ANIMAL</text><text fill="#000000" font-family="sans-serif" font-size="13" lengthAdjust="spacing" textLength="196" x="675" y="2173.0186">businessId=animalId + formalPath</text><polygon fill="#181818" points="2003.5,2204.2266,2013.5,2208.2266,2003.5,2212.2266,2007.5,2208.2266" style="stroke:#181818;stroke-width:1.0;"/><line style="stroke:#181818;stroke-width:1.0;" x1="1649.5" x2="2009.5" y1="2208.2266" y2="2208.2266"/><text fill="#000000" font-family="sans-serif" font-size="13" lengthAdjust="spacing" textLength="118" x="1656.5" y="2203.3701">conditional UPDATE</text><polygon fill="#181818" points="1660.5,2234.5781,1650.5,2238.5781,1660.5,2242.5781,1656.5,2238.5781" style="stroke:#181818;stroke-width:1.0;"/><line style="stroke:#181818;stroke-width:1.0;stroke-dasharray:2.0,2.0;" x1="1654.5" x2="2014.5" y1="2238.5781" y2="2238.5781"/><text fill="#000000" font-family="sans-serif" font-size="13" lengthAdjust="spacing" textLength="92" x="1666.5" y="2233.7217">affectedRows=1</text><polygon fill="#181818" points="907,2311.6328,917,2315.6328,907,2319.6328,911,2315.6328" style="stroke:#181818;stroke-width:1.0;"/><line style="stroke:#181818;stroke-width:1.0;" x1="668" x2="913" y1="2315.6328" y2="2315.6328"/><text fill="#000000" font-family="sans-serif" font-size="13" lengthAdjust="spacing" textLength="84" x="675" y="2278.0732">UPDATE Task</text><text fill="#000000" font-family="sans-serif" font-size="13" lengthAdjust="spacing" textLength="167" x="675" y="2294.4248">IN_PROGRESS&#8594;SUCCESS</text><text fill="#000000" font-family="sans-serif" font-size="13" lengthAdjust="spacing" textLength="57" x="675" y="2310.7764">finishedAt</text><polygon fill="#181818" points="2003.5,2341.9844,2013.5,2345.9844,2003.5,2349.9844,2007.5,2345.9844" style="stroke:#181818;stroke-width:1.0;"/><line style="stroke:#181818;stroke-width:1.0;" x1="919" x2="2009.5" y1="2345.9844" y2="2345.9844"/><text fill="#000000" font-family="sans-serif" font-size="13" lengthAdjust="spacing" textLength="52" x="926" y="2341.1279">UPDATE</text><polygon fill="#181818" points="1057,2388.6875,1067,2392.6875,1057,2396.6875,1061,2392.6875" style="stroke:#181818;stroke-width:1.0;"/><line style="stroke:#181818;stroke-width:1.0;" x1="668" x2="1063" y1="2392.6875" y2="2392.6875"/><text fill="#000000" font-family="sans-serif" font-size="13" lengthAdjust="spacing" textLength="82" x="675" y="2371.4795">UPDATE Clue</text><text fill="#000000" font-family="sans-serif" font-size="13" lengthAdjust="spacing" textLength="144" x="675" y="2387.8311">CONVERTED&#8594;CLOSED</text><polygon fill="#181818" points="2003.5,2419.0391,2013.5,2423.0391,2003.5,2427.0391,2007.5,2423.0391" style="stroke:#181818;stroke-width:1.0;"/><line style="stroke:#181818;stroke-width:1.0;" x1="1069" x2="2009.5" y1="2423.0391" y2="2423.0391"/><text fill="#000000" font-family="sans-serif" font-size="13" lengthAdjust="spacing" textLength="52" x="1076" y="2418.1826">UPDATE</text><polygon fill="#181818" points="1799,2482.0938,1809,2486.0938,1799,2490.0938,1803,2486.0938" style="stroke:#181818;stroke-width:1.0;"/><line style="stroke:#181818;stroke-width:1.0;" x1="668" x2="1805" y1="2486.0938" y2="2486.0938"/><text fill="#000000" font-family="sans-serif" font-size="13" lengthAdjust="spacing" textLength="127" x="675" y="2448.5342">INSERT OperationLog</text><text fill="#000000" font-family="sans-serif" font-size="13" lengthAdjust="spacing" textLength="243" x="675" y="2464.8857">RESCUE_TASK + COMPLETE_RESCUE</text><text fill="#000000" font-family="sans-serif" font-size="13" lengthAdjust="spacing" textLength="167" x="675" y="2481.2373">IN_PROGRESS&#8594;SUCCESS</text><polygon fill="#181818" points="2003.5,2512.4453,2013.5,2516.4453,2003.5,2520.4453,2007.5,2516.4453" style="stroke:#181818;stroke-width:1.0;"/><line style="stroke:#181818;stroke-width:1.0;" x1="1811" x2="2009.5" y1="2516.4453" y2="2516.4453"/><text fill="#000000" font-family="sans-serif" font-size="13" lengthAdjust="spacing" textLength="46" x="1818" y="2511.5889">INSERT</text><polygon fill="#181818" points="1799,2575.5,1809,2579.5,1799,2583.5,1803,2579.5" style="stroke:#181818;stroke-width:1.0;"/><line style="stroke:#181818;stroke-width:1.0;" x1="668" x2="1805" y1="2579.5" y2="2579.5"/><text fill="#000000" font-family="sans-serif" font-size="13" lengthAdjust="spacing" textLength="127" x="675" y="2541.9404">INSERT OperationLog</text><text fill="#000000" font-family="sans-serif" font-size="13" lengthAdjust="spacing" textLength="265" x="675" y="2558.292">RESCUE_CLUE + CLOSE_AFTER_RESCUE</text><text fill="#000000" font-family="sans-serif" font-size="13" lengthAdjust="spacing" textLength="144" x="675" y="2574.6436">CONVERTED&#8594;CLOSED</text><polygon fill="#181818" points="2003.5,2605.8516,2013.5,2609.8516,2003.5,2613.8516,2007.5,2609.8516" style="stroke:#181818;stroke-width:1.0;"/><line style="stroke:#181818;stroke-width:1.0;" x1="1811" x2="2009.5" y1="2609.8516" y2="2609.8516"/><text fill="#000000" font-family="sans-serif" font-size="13" lengthAdjust="spacing" textLength="46" x="1818" y="2604.9951">INSERT</text><path d="M588,2624.8516 L661,2624.8516 L661,2633.2031 L651,2643.2031 L588,2643.2031 L588,2624.8516 " fill="#EEEEEE" style="stroke:#000000;stroke-width:1.5;"/><rect fill="none" height="79.0547" style="stroke:#000000;stroke-width:1.5;" width="1401.5" x="588" y="2624.8516"/><text fill="#000000" font-family="sans-serif" font-size="13" font-weight="bold" lengthAdjust="spacing" textLength="28" x="603" y="2639.3467">loop</text><text fill="#000000" font-family="sans-serif" font-size="11" font-weight="bold" lengthAdjust="spacing" textLength="53.375" x="676" y="2638.2705">[&#25152;&#26377;&#22270;&#29255;]</text><polygon fill="#181818" points="1925.5,2661.5547,1935.5,2665.5547,1925.5,2669.5547,1929.5,2665.5547" style="stroke:#181818;stroke-width:1.0;"/><line style="stroke:#181818;stroke-width:1.0;" x1="668" x2="1931.5" y1="2665.5547" y2="2665.5547"/><text fill="#000000" font-family="sans-serif" font-size="13" lengthAdjust="spacing" textLength="115" x="675" y="2660.6982">copy temp &#8594; formal</text><polygon fill="#181818" points="679,2691.9063,669,2695.9063,679,2699.9063,675,2695.9063" style="stroke:#181818;stroke-width:1.0;"/><line style="stroke:#181818;stroke-width:1.0;stroke-dasharray:2.0,2.0;" x1="673" x2="1936.5" y1="2695.9063" y2="2695.9063"/><text fill="#000000" font-family="sans-serif" font-size="13" lengthAdjust="spacing" textLength="14" x="685" y="2691.0498">ok</text><path d="M103.5,2717.9063 L184.5,2717.9063 L184.5,2726.2578 L174.5,2736.2578 L103.5,2736.2578 L103.5,2717.9063 " fill="#EEEEEE" style="stroke:#000000;stroke-width:1.5;"/><rect fill="none" height="156.1094" style="stroke:#000000;stroke-width:1.5;" width="1948" x="103.5" y="2717.9063"/><text fill="#000000" font-family="sans-serif" font-size="13" font-weight="bold" lengthAdjust="spacing" textLength="36" x="118.5" y="2732.4014">break</text><text fill="#000000" font-family="sans-serif" font-size="11" font-weight="bold" lengthAdjust="spacing" textLength="358.1875" x="199.5" y="2731.3252">[&#20219;&#19968;&#25968;&#25454;&#24211;&#20889;&#20837;&#12289;OperationLog&#20889;&#20837;&#12289;&#25991;&#20214;&#26657;&#39564;&#25110; formal copy &#22833;&#36133;]</text><polygon fill="#181818" points="2003.5,2754.6094,2013.5,2758.6094,2003.5,2762.6094,2007.5,2758.6094" style="stroke:#181818;stroke-width:1.0;"/><line style="stroke:#181818;stroke-width:1.0;" x1="668" x2="2009.5" y1="2758.6094" y2="2758.6094"/><text fill="#000000" font-family="sans-serif" font-size="13" lengthAdjust="spacing" textLength="69" x="675" y="2753.7529">ROLLBACK</text><polygon fill="#181818" points="1925.5,2801.3125,1935.5,2805.3125,1925.5,2809.3125,1929.5,2805.3125" style="stroke:#181818;stroke-width:1.0;"/><line style="stroke:#181818;stroke-width:1.0;" x1="668" x2="1931.5" y1="2805.3125" y2="2805.3125"/><text fill="#000000" font-family="sans-serif" font-size="13" lengthAdjust="spacing" textLength="143" x="675" y="2784.1045">&#21024;&#38500;&#26412;&#20107;&#21153;&#26032;&#24314;&#27491;&#24335;&#21103;&#26412;</text><text fill="#000000" font-family="sans-serif" font-size="13" lengthAdjust="spacing" textLength="72" x="675" y="2800.4561">&#20445;&#30041;&#21407; temp</text><polygon fill="#181818" points="400,2831.6641,390,2835.6641,400,2839.6641,396,2835.6641" style="stroke:#181818;stroke-width:1.0;"/><line style="stroke:#181818;stroke-width:1.0;stroke-dasharray:2.0,2.0;" x1="394" x2="667" y1="2835.6641" y2="2835.6641"/><text fill="#000000" font-family="sans-serif" font-size="13" lengthAdjust="spacing" textLength="78" x="406" y="2830.8076">&#32479;&#19968;&#19994;&#21153;&#24322;&#24120;</text><polygon fill="#181818" points="154,2862.0156,144,2866.0156,154,2870.0156,150,2866.0156" style="stroke:#181818;stroke-width:1.0;"/><line style="stroke:#181818;stroke-width:1.0;stroke-dasharray:2.0,2.0;" x1="148" x2="388" y1="2866.0156" y2="2866.0156"/><text fill="#000000" font-family="sans-serif" font-size="13" lengthAdjust="spacing" textLength="54" x="160" y="2861.1592">4xx / 5xx</text><polygon fill="#181818" points="2003.5,2899.3672,2013.5,2903.3672,2003.5,2907.3672,2007.5,2903.3672" style="stroke:#181818;stroke-width:1.0;"/><line style="stroke:#181818;stroke-width:1.0;" x1="668" x2="2009.5" y1="2903.3672" y2="2903.3672"/><text fill="#000000" font-family="sans-serif" font-size="13" lengthAdjust="spacing" textLength="51" x="675" y="2898.5107">COMMIT</text><polygon fill="#181818" points="1925.5,2929.7188,1935.5,2933.7188,1925.5,2937.7188,1929.5,2933.7188" style="stroke:#181818;stroke-width:1.0;"/><line style="stroke:#181818;stroke-width:1.0;" x1="668" x2="1931.5" y1="2933.7188" y2="2933.7188"/><text fill="#000000" font-family="sans-serif" font-size="13" lengthAdjust="spacing" textLength="91" x="675" y="2928.8623">&#21024;&#38500;&#21407;&#20020;&#26102;&#25991;&#20214;</text><polygon fill="#181818" points="679,2960.0703,669,2964.0703,679,2968.0703,675,2964.0703" style="stroke:#181818;stroke-width:1.0;"/><line style="stroke:#181818;stroke-width:1.0;stroke-dasharray:2.0,2.0;" x1="673" x2="1936.5" y1="2964.0703" y2="2964.0703"/><text fill="#000000" font-family="sans-serif" font-size="13" lengthAdjust="spacing" textLength="86" x="685" y="2959.2139">done / deferred</text><polygon fill="#181818" points="1637.5,2990.4219,1647.5,2994.4219,1637.5,2998.4219,1641.5,2994.4219" style="stroke:#181818;stroke-width:1.0;"/><line style="stroke:#181818;stroke-width:1.0;" x1="668" x2="1643.5" y1="2994.4219" y2="2994.4219"/><text fill="#000000" font-family="sans-serif" font-size="13" lengthAdjust="spacing" textLength="182" x="675" y="2989.5654">&#23433;&#20840;&#21024;&#38500; BOUND technical row</text><polygon fill="#181818" points="2003.5,3020.7734,2013.5,3024.7734,2003.5,3028.7734,2007.5,3024.7734" style="stroke:#181818;stroke-width:1.0;"/><line style="stroke:#181818;stroke-width:1.0;" x1="1649.5" x2="2009.5" y1="3024.7734" y2="3024.7734"/><text fill="#000000" font-family="sans-serif" font-size="13" lengthAdjust="spacing" textLength="124" x="1656.5" y="3019.917">DELETE verified rows</text><polygon fill="#181818" points="1660.5,3051.125,1650.5,3055.125,1660.5,3059.125,1656.5,3055.125" style="stroke:#181818;stroke-width:1.0;"/><line style="stroke:#181818;stroke-width:1.0;stroke-dasharray:2.0,2.0;" x1="1654.5" x2="2014.5" y1="3055.125" y2="3055.125"/><text fill="#000000" font-family="sans-serif" font-size="13" lengthAdjust="spacing" textLength="86" x="1666.5" y="3050.2686">done / deferred</text><polygon fill="#181818" points="400,3097.8281,390,3101.8281,400,3105.8281,396,3101.8281" style="stroke:#181818;stroke-width:1.0;"/><line style="stroke:#181818;stroke-width:1.0;stroke-dasharray:2.0,2.0;" x1="394" x2="667" y1="3101.8281" y2="3101.8281"/><text fill="#000000" font-family="sans-serif" font-size="13" lengthAdjust="spacing" textLength="158" x="406" y="3080.6201">taskId + status=SUCCESS</text><text fill="#000000" font-family="sans-serif" font-size="13" lengthAdjust="spacing" textLength="140" x="406" y="3096.9717">+ animalIds + finishedAt</text><polygon fill="#181818" points="154,3128.1797,144,3132.1797,154,3136.1797,150,3132.1797" style="stroke:#181818;stroke-width:1.0;"/><line style="stroke:#181818;stroke-width:1.0;stroke-dasharray:2.0,2.0;" x1="148" x2="388" y1="3132.1797" y2="3132.1797"/><text fill="#000000" font-family="sans-serif" font-size="13" lengthAdjust="spacing" textLength="44" x="160" y="3127.3232">200 OK</text><!--SRC=[bLTVJzjM57_tfxZZgLKB2HDxwBHKCiPfiuQ4sSwgIP4Yarp08bndjbDWqoJQZXOO5DOEDZfQoWfRsxLGD5HGWhhliiPEUEfNsBc-Jh1DwDW3Ydpkxvw_ltlEOKGhO3IawzQWFi6PenefgOOwXimHjQ2FQsGO3Qb54tESfLb5Z392PxJd_U7CuFl3MMTngLRPT9P_jEUUrwiFdCTh7AVcBTr07P8e2nbHwa2gYIHivilOu42lfUMraaeir57_eshFFQl_kPCb6QBnfP8BXTyWZDrLL7DKq8bbwCKYDboaS1fEniODBOzTa7mQg5yjbJn5Idyxa50iOnz8285ueesfHH-0Rmj8ZAd3VZLy8WIxYjMYDIBXl6uKVBYhKWYduB6IRgZ6P5mh-XKgyH0m3IUgfUaagG_xSEba24Vr-3CLbxc2Qgc3gebHH_-a_4NI5VVrSXpHBOpq6zYWrRaeS9zVLr1ZUxEnS_FTrCt6tk_sudvzxeqpTTDvEkMiRzdtvv7Koml8UNJxQ7N9UR9nz6AUg_-qQq-_jATtxUrPU_hPqOEtzlQyCxFq_d3UMNjf__gsTh1mT7V1tbomTvVjmwbtKxSuJ0g86kSuZq6eypBr0NsAsZ2F7i2v0AS3QLb14RMaHGptOgS59JSZtzAVHE4xAYqNBKwWU1dmPdbmJBCaLtgEWIwYVDamCB4o9ZRefu6_BcFJEWyCBrg8QK0n5ESJIR6FGw07bFNrWhPUyKeYrPGe_I39wwIWqQAeHPGPwECLCKkkNnKb4Mc56BEN9Nog3p5tZHo80-RPgMcfLjcC9LAv0Ibz1LwOd2N_tBdl-O0km4FLYcK3IrWrTKA_DQAP8xZ0M-0EUDBqaFa0ClZgR3gf3WtXl8KBaZvkSd16m_JB8DWeYFrnkJan9X4BmJtqMP75f2WehjHlnz37KGJgIl2nDXSlfPD9uCsrfjWhPa-q9zeDDtgYbwBTS8QX6OKTwpvM1Ko7IucKB4eAyh-6B64zAQVmyZL8ZlV5afSblgn2JfjImqrbB91OrnOrqtIS6UDS-I3S64MrQhLsCEKiltOMjktA0_lEgZszvSoi11n2J6nlxZRsjjpBfsR3duzwTHrqrmuUsdCRzk4j- -30XS1ZuK895TBz_Gabb4uPI8JvFFK125_IYSdg8BW8zhe-ZaPHcbfsbRe9Rn5UpWW2vAWDumEKPyL7jDUYU5ewfjm9Wg2khguWnC-MefuVnGMcnsEDnqqgWgPXl_h5Ndi6PqUF7ZVsrXjxJskLolzX5bGydP44CPTAAxbuEfFgQvACMkXYZmvz54C-XfnLFp0MzMRaH0hkv6G5mii9wLGycN3VHSk8lJJZ_BLyh9Jsf3mCe4G1c3HTgzxpfw6Bda27G8rx-_RYYg_eWY_nT7u5iuhe-N-blfLymPTygYle76lgxe6Ne1Z4zIMy0kY5RQ6gEmzDT3dMdILq0Dn-XZGw7HLz51CJGGeQsnkVnIwvfusTVMVt5hBe6MfD1b_tYVj2TL5cbgIbFb52lLz1KqMyB8G3etVE73upOD1Ms2uQVPnW8y8YZ-29acPCHgp94ewOsZUO9Q2ewoNax2pM3buWjWpudpZlQrBibFQQvdQIACJy1TUW_tjPLYIHLnAfAnSHp6CJtd0iwgdbJ_GZ9lS2SWso8YIyHe6GNh8GZ0XBKul-HOG-fVhpYWVoF8QLvDXbFvewJd_fd0fEhPO2UhUjSwscvUMhiRFbfGFL7tuV9CZsRyxCFkoBzhtreusANLaC-XUdvHd6XFPN7DSDq36WMYFd-5IYdq-URu7Zx7rIz50BnGLrmPeMBe-xoK4PTCDAqrXZtLrTgTOjUg7TD0WHbl4C1PQvBEcbFGS6qc3Pr0WsJGM856DkPqbJ2BbjLeyEzcFFcsRyz3wvRxHW0NxxfsYisrUJamD5yViFf0mFJ6yiP4bWvsYtTOJwbQUJjf8iQJKHq2WaqxAxMGKQrmabPvxtC0q7aY9qO2O-9O0F3lSp6XII6P4Qf07a-BWYIYsRfmHuca7MH6QddBLPM97hitUvCEFpUWdsBo0KefiWumLtWkdwQB2a7zXIOAVt1zKIEYjtQzKthF_HJOQPOlRFlC9uJjipJuvMDs7lhrL-W2t6MNbjLolEgwVsuQ8zkmFoBAdz_QY-l0fltGtkh4jGS8tfcPY0lU2JYOcpBKW1vy1oxM3F-VaDYviB9RG0YmZeBk0X30sl49vCx9ySfWcnzstX_0ZHyf0oc2ed1bAVIAb9cxesf47VRqsUm7iDMmtj6smD1-PvmwBr9Y-qEhyP_g_W0uiV_ViN]--></g></svg>