<?xml version="1.0" encoding="us-ascii" standalone="no"?><svg xmlns="http://www.w3.org/2000/svg" xmlns:xlink="http://www.w3.org/1999/xlink" contentStyleType="text/css" height="1680px" preserveAspectRatio="none" style="width:1382px;height:1680px;background:#FFFFFF;" version="1.1" viewBox="0 0 1382 1680" width="1382px" zoomAndPan="magnify"><defs/><g><text fill="#000000" font-family="sans-serif" font-size="14" font-weight="bold" lengthAdjust="spacing" textLength="236.6875" x="574.4063" y="29.5332">UC-04&#65288;a&#65289;&#24320;&#22987;&#25937;&#21161;&#24182;&#36861;&#21152;&#25937;&#21161;&#35760;&#24405;</text><rect fill="none" height="773.6797" style="stroke:#000000;stroke-width:1.5;" width="1366.5" x="10" y="190.9219"/><rect fill="none" height="463.4609" style="stroke:#000000;stroke-width:1.5;" width="1240" x="126.5" y="494.1406"/><rect fill="none" height="79.0547" style="stroke:#000000;stroke-width:1.5;" width="1021" x="335.5" y="780.4922"/><rect fill="none" height="677.4063" style="stroke:#000000;stroke-width:1.5;" width="1366.5" x="10" y="978.6016"/><rect fill="none" height="432.5938" style="stroke:#000000;stroke-width:1.5;" width="1240" x="126.5" y="1216.4141"/><rect fill="none" height="79.0547" style="stroke:#000000;stroke-width:1.5;" width="1021" x="335.5" y="1471.8984"/><line style="stroke:#181818;stroke-width:0.5;stroke-dasharray:5.0,5.0;" x1="56" x2="56" y1="121.2188" y2="1673.0078"/><line style="stroke:#181818;stroke-width:0.5;stroke-dasharray:5.0,5.0;" x1="165.5" x2="165.5" y1="121.2188" y2="1673.0078"/><line style="stroke:#181818;stroke-width:0.5;stroke-dasharray:5.0,5.0;" x1="422.5" x2="422.5" y1="121.2188" y2="1673.0078"/><line style="stroke:#181818;stroke-width:0.5;stroke-dasharray:5.0,5.0;" x1="688" x2="688" y1="121.2188" y2="1673.0078"/><line style="stroke:#181818;stroke-width:0.5;stroke-dasharray:5.0,5.0;" x1="888.5" x2="888.5" y1="121.2188" y2="1673.0078"/><line style="stroke:#181818;stroke-width:0.5;stroke-dasharray:5.0,5.0;" x1="1047.5" x2="1047.5" y1="121.2188" y2="1673.0078"/><line style="stroke:#181818;stroke-width:0.5;stroke-dasharray:5.0,5.0;" x1="1209.5" x2="1209.5" y1="121.2188" y2="1673.0078"/><line style="stroke:#181818;stroke-width:0.5;stroke-dasharray:5.0,5.0;" x1="1320.5" x2="1320.5" y1="121.2188" y2="1673.0078"/><text fill="#000000" font-family="sans-serif" font-size="14" lengthAdjust="spacing" textLength="66" x="20" y="118.1426">RESCUER</text><ellipse cx="56" cy="52.1094" fill="#E2E2F0" rx="8" ry="8" style="stroke:#181818;stroke-width:0.5;"/><path d="M56,60.1094 L56,87.1094 M43,68.1094 L69,68.1094 M56,87.1094 L43,102.1094 M56,87.1094 L69,102.1094 " fill="none" style="stroke:#181818;stroke-width:0.5;"/><rect fill="#E2E2F0" height="49.2188" rx="2.5" ry="2.5" style="stroke:#181818;stroke-width:0.5;" width="59" x="136.5" y="71"/><text fill="#000000" font-family="sans-serif" font-size="14" lengthAdjust="spacing" textLength="42" x="145" y="92.5332">&#31227;&#21160;&#31471;</text><text fill="#000000" font-family="sans-serif" font-size="14" lengthAdjust="spacing" textLength="45" x="143.5" y="110.1426">UniApp</text><rect fill="#E2E2F0" height="31.6094" rx="2.5" ry="2.5" style="stroke:#181818;stroke-width:0.5;" width="155" x="345.5" y="88.6094"/><text fill="#000000" font-family="sans-serif" font-size="14" lengthAdjust="spacing" textLength="141" x="352.5" y="110.1426">RescueTaskController</text><rect fill="#E2E2F0" height="31.6094" rx="2.5" ry="2.5" style="stroke:#181818;stroke-width:0.5;" width="140" x="618" y="88.6094"/><text fill="#000000" font-family="sans-serif" font-size="14" lengthAdjust="spacing" textLength="126" x="625" y="110.1426">RescueTaskService</text><rect fill="#E2E2F0" height="31.6094" rx="2.5" ry="2.5" style="stroke:#181818;stroke-width:0.5;" width="141" x="818.5" y="88.6094"/><text fill="#000000" font-family="sans-serif" font-size="14" lengthAdjust="spacing" textLength="127" x="825.5" y="110.1426">RescueTaskMapper</text><rect fill="#E2E2F0" height="31.6094" rx="2.5" ry="2.5" style="stroke:#181818;stroke-width:0.5;" width="156" x="969.5" y="88.6094"/><text fill="#000000" font-family="sans-serif" font-size="14" lengthAdjust="spacing" textLength="142" x="976.5" y="110.1426">RescueRecordMapper</text><rect fill="#E2E2F0" height="31.6094" rx="2.5" ry="2.5" style="stroke:#181818;stroke-width:0.5;" width="149" x="1135.5" y="88.6094"/><text fill="#000000" font-family="sans-serif" font-size="14" lengthAdjust="spacing" textLength="135" x="1142.5" y="110.1426">OperationLogMapper</text><text fill="#000000" font-family="sans-serif" font-size="14" lengthAdjust="spacing" textLength="46" x="1294.5" y="118.1426">MySQL</text><path d="M1302.5,67.6094 C1302.5,57.6094 1320.5,57.6094 1320.5,57.6094 C1320.5,57.6094 1338.5,57.6094 1338.5,67.6094 L1338.5,93.6094 C1338.5,103.6094 1320.5,103.6094 1320.5,103.6094 C1320.5,103.6094 1302.5,103.6094 1302.5,93.6094 L1302.5,67.6094 " fill="#E2E2F0" style="stroke:#181818;stroke-width:1.5;"/><path d="M1302.5,67.6094 C1302.5,77.6094 1320.5,77.6094 1320.5,77.6094 C1320.5,77.6094 1338.5,77.6094 1338.5,67.6094 " fill="none" style="stroke:#181818;stroke-width:1.5;"/><path d="M115,136.2188 L115,178.2188 L474,178.2188 L474,146.2188 L464,136.2188 L115,136.2188 " fill="#FEFFDD" style="stroke:#181818;stroke-width:0.5;"/><path d="M464,136.2188 L464,146.2188 L474,146.2188 L464,136.2188 " fill="#FEFFDD" style="stroke:#181818;stroke-width:0.5;"/><text fill="#000000" font-family="sans-serif" font-size="13" lengthAdjust="spacing" textLength="256" x="162" y="154.7139">JWT &#35748;&#35777;&#12289;&#36134;&#21495;&#29366;&#24577;&#26816;&#26597;&#21644; RBAC &#26435;&#38480;&#26657;&#39564;</text><text fill="#000000" font-family="sans-serif" font-size="13" lengthAdjust="spacing" textLength="221" x="162" y="171.0654">&#30001;&#20844;&#20849;&#23433;&#20840;&#38142;&#23436;&#25104;&#65292;&#26412;&#22270;&#19981;&#37325;&#22797;&#23637;&#24320;&#12290;</text><path d="M10,190.9219 L108.625,190.9219 L108.625,199.2734 L98.625,209.2734 L10,209.2734 L10,190.9219 " fill="#EEEEEE" style="stroke:#000000;stroke-width:1.5;"/><rect fill="none" height="773.6797" style="stroke:#000000;stroke-width:1.5;" width="1366.5" x="10" y="190.9219"/><text fill="#000000" font-family="sans-serif" font-size="13" font-weight="bold" lengthAdjust="spacing" textLength="53.625" x="25" y="205.417">&#24320;&#22987;&#25937;&#21161;</text><polygon fill="#181818" points="154,227.625,164,231.625,154,235.625,158,231.625" style="stroke:#181818;stroke-width:1.0;"/><line style="stroke:#181818;stroke-width:1.0;" x1="56" x2="160" y1="231.625" y2="231.625"/><text fill="#000000" font-family="sans-serif" font-size="13" lengthAdjust="spacing" textLength="86" x="63" y="226.7686">&#28857;&#20987;&#8220;&#24320;&#22987;&#25937;&#21161;&#8221;</text><polygon fill="#181818" points="411,257.9766,421,261.9766,411,265.9766,415,261.9766" style="stroke:#181818;stroke-width:1.0;"/><line style="stroke:#181818;stroke-width:1.0;" x1="166" x2="417" y1="261.9766" y2="261.9766"/><text fill="#000000" font-family="sans-serif" font-size="13" lengthAdjust="spacing" textLength="216" x="173" y="257.1201">POST /api/rescue-tasks/{taskId}/start</text><polygon fill="#181818" points="676,288.3281,686,292.3281,676,296.3281,680,292.3281" style="stroke:#181818;stroke-width:1.0;"/><line style="stroke:#181818;stroke-width:1.0;" x1="423" x2="682" y1="292.3281" y2="292.3281"/><text fill="#000000" font-family="sans-serif" font-size="13" lengthAdjust="spacing" textLength="154" x="430" y="287.4717">start(taskId, currentUserId)</text><polygon fill="#181818" points="1308.5,318.6797,1318.5,322.6797,1308.5,326.6797,1312.5,322.6797" style="stroke:#181818;stroke-width:1.0;"/><line style="stroke:#181818;stroke-width:1.0;" x1="688" x2="1314.5" y1="322.6797" y2="322.6797"/><text fill="#000000" font-family="sans-serif" font-size="13" lengthAdjust="spacing" textLength="40" x="695" y="317.8232">BEGIN</text><polygon fill="#181818" points="877,414.4375,887,418.4375,877,422.4375,881,418.4375" style="stroke:#181818;stroke-width:1.0;"/><line style="stroke:#181818;stroke-width:1.0;" x1="688" x2="883" y1="418.4375" y2="418.4375"/><text fill="#000000" font-family="sans-serif" font-size="13" lengthAdjust="spacing" textLength="118" x="695" y="348.1748">conditional UPDATE</text><text fill="#000000" font-family="sans-serif" font-size="13" lengthAdjust="spacing" textLength="106" x="695" y="364.5264">WHERE id=taskId</text><text fill="#000000" font-family="sans-serif" font-size="13" lengthAdjust="spacing" textLength="176" x="695" y="380.8779">AND rescuer_id=currentUserId</text><text fill="#000000" font-family="sans-serif" font-size="13" lengthAdjust="spacing" textLength="177" x="695" y="397.2295">AND status=WAITING_START</text><text fill="#000000" font-family="sans-serif" font-size="13" lengthAdjust="spacing" textLength="177" x="695" y="413.5811">&#8594; IN_PROGRESS + startedAt</text><polygon fill="#181818" points="1308.5,444.7891,1318.5,448.7891,1308.5,452.7891,1312.5,448.7891" style="stroke:#181818;stroke-width:1.0;"/><line style="stroke:#181818;stroke-width:1.0;" x1="889" x2="1314.5" y1="448.7891" y2="448.7891"/><text fill="#000000" font-family="sans-serif" font-size="13" lengthAdjust="spacing" textLength="52" x="896" y="443.9326">UPDATE</text><polygon fill="#181818" points="900,475.1406,890,479.1406,900,483.1406,896,479.1406" style="stroke:#181818;stroke-width:1.0;"/><line style="stroke:#181818;stroke-width:1.0;stroke-dasharray:2.0,2.0;" x1="894" x2="1319.5" y1="479.1406" y2="479.1406"/><text fill="#000000" font-family="sans-serif" font-size="13" lengthAdjust="spacing" textLength="77" x="906" y="474.2842">affectedRows</text><path d="M126.5,494.1406 L187.5,494.1406 L187.5,502.4922 L177.5,512.4922 L126.5,512.4922 L126.5,494.1406 " fill="#EEEEEE" style="stroke:#000000;stroke-width:1.5;"/><rect fill="none" height="463.4609" style="stroke:#000000;stroke-width:1.5;" width="1240" x="126.5" y="494.1406"/><text fill="#000000" font-family="sans-serif" font-size="13" font-weight="bold" lengthAdjust="spacing" textLength="16" x="141.5" y="508.6357">alt</text><text fill="#000000" font-family="sans-serif" font-size="11" font-weight="bold" lengthAdjust="spacing" textLength="102" x="202.5" y="507.5596">[affectedRows = 0]</text><polygon fill="#181818" points="877,530.8438,887,534.8438,877,538.8438,881,534.8438" style="stroke:#181818;stroke-width:1.0;"/><line style="stroke:#181818;stroke-width:1.0;" x1="688" x2="883" y1="534.8438" y2="534.8438"/><text fill="#000000" font-family="sans-serif" font-size="13" lengthAdjust="spacing" textLength="82" x="695" y="529.9873">requery taskId</text><polygon fill="#181818" points="1308.5,561.1953,1318.5,565.1953,1308.5,569.1953,1312.5,565.1953" style="stroke:#181818;stroke-width:1.0;"/><line style="stroke:#181818;stroke-width:1.0;" x1="889" x2="1314.5" y1="565.1953" y2="565.1953"/><text fill="#000000" font-family="sans-serif" font-size="13" lengthAdjust="spacing" textLength="50" x="896" y="560.3389">SELECT</text><polygon fill="#181818" points="900,591.5469,890,595.5469,900,599.5469,896,595.5469" style="stroke:#181818;stroke-width:1.0;"/><line style="stroke:#181818;stroke-width:1.0;stroke-dasharray:2.0,2.0;" x1="894" x2="1319.5" y1="595.5469" y2="595.5469"/><text fill="#000000" font-family="sans-serif" font-size="13" lengthAdjust="spacing" textLength="60" x="906" y="590.6904">row / none</text><polygon fill="#181818" points="1308.5,621.8984,1318.5,625.8984,1308.5,629.8984,1312.5,625.8984" style="stroke:#181818;stroke-width:1.0;"/><line style="stroke:#181818;stroke-width:1.0;" x1="688" x2="1314.5" y1="625.8984" y2="625.8984"/><text fill="#000000" font-family="sans-serif" font-size="13" lengthAdjust="spacing" textLength="69" x="695" y="621.042">ROLLBACK</text><polygon fill="#181818" points="434,652.25,424,656.25,434,660.25,430,656.25" style="stroke:#181818;stroke-width:1.0;"/><line style="stroke:#181818;stroke-width:1.0;stroke-dasharray:2.0,2.0;" x1="428" x2="687" y1="656.25" y2="656.25"/><text fill="#000000" font-family="sans-serif" font-size="13" lengthAdjust="spacing" textLength="82" x="440" y="651.3936">40401 / 40901</text><line style="stroke:#000000;stroke-width:1.0;stroke-dasharray:2.0,2.0;" x1="126.5" x2="1366.5" y1="665.25" y2="665.25"/><text fill="#000000" font-family="sans-serif" font-size="11" font-weight="bold" lengthAdjust="spacing" textLength="102" x="131.5" y="676.6689">[affectedRows = 1]</text><polygon fill="#181818" points="1198,731.1406,1208,735.1406,1198,739.1406,1202,735.1406" style="stroke:#181818;stroke-width:1.0;"/><line style="stroke:#181818;stroke-width:1.0;" x1="688" x2="1204" y1="735.1406" y2="735.1406"/><text fill="#000000" font-family="sans-serif" font-size="13" lengthAdjust="spacing" textLength="127" x="695" y="697.5811">INSERT OperationLog</text><text fill="#000000" font-family="sans-serif" font-size="13" lengthAdjust="spacing" textLength="213" x="695" y="713.9326">RESCUE_TASK + START_RESCUE</text><text fill="#000000" font-family="sans-serif" font-size="13" lengthAdjust="spacing" textLength="206" x="695" y="730.2842">WAITING_START&#8594;IN_PROGRESS</text><polygon fill="#181818" points="1308.5,761.4922,1318.5,765.4922,1308.5,769.4922,1312.5,765.4922" style="stroke:#181818;stroke-width:1.0;"/><line style="stroke:#181818;stroke-width:1.0;" x1="1210" x2="1314.5" y1="765.4922" y2="765.4922"/><text fill="#000000" font-family="sans-serif" font-size="13" lengthAdjust="spacing" textLength="46" x="1217" y="760.6357">INSERT</text><path d="M335.5,780.4922 L416.5,780.4922 L416.5,788.8438 L406.5,798.8438 L335.5,798.8438 L335.5,780.4922 " fill="#EEEEEE" style="stroke:#000000;stroke-width:1.5;"/><rect fill="none" height="79.0547" style="stroke:#000000;stroke-width:1.5;" width="1021" x="335.5" y="780.4922"/><text fill="#000000" font-family="sans-serif" font-size="13" font-weight="bold" lengthAdjust="spacing" textLength="36" x="350.5" y="794.9873">break</text><text fill="#000000" font-family="sans-serif" font-size="11" font-weight="bold" lengthAdjust="spacing" textLength="225.125" x="431.5" y="793.9111">[&#20219;&#19968;&#25968;&#25454;&#24211;&#20889;&#20837;&#25110; OperationLog &#20889;&#20837;&#22833;&#36133;]</text><polygon fill="#181818" points="1308.5,817.1953,1318.5,821.1953,1308.5,825.1953,1312.5,821.1953" style="stroke:#181818;stroke-width:1.0;"/><line style="stroke:#181818;stroke-width:1.0;" x1="688" x2="1314.5" y1="821.1953" y2="821.1953"/><text fill="#000000" font-family="sans-serif" font-size="13" lengthAdjust="spacing" textLength="69" x="695" y="816.3389">ROLLBACK</text><polygon fill="#181818" points="434,847.5469,424,851.5469,434,855.5469,430,851.5469" style="stroke:#181818;stroke-width:1.0;"/><line style="stroke:#181818;stroke-width:1.0;stroke-dasharray:2.0,2.0;" x1="428" x2="687" y1="851.5469" y2="851.5469"/><text fill="#000000" font-family="sans-serif" font-size="13" lengthAdjust="spacing" textLength="78" x="440" y="846.6904">&#32479;&#19968;&#19994;&#21153;&#24322;&#24120;</text><polygon fill="#181818" points="1308.5,884.8984,1318.5,888.8984,1308.5,892.8984,1312.5,888.8984" style="stroke:#181818;stroke-width:1.0;"/><line style="stroke:#181818;stroke-width:1.0;" x1="688" x2="1314.5" y1="888.8984" y2="888.8984"/><text fill="#000000" font-family="sans-serif" font-size="13" lengthAdjust="spacing" textLength="51" x="695" y="884.042">COMMIT</text><polygon fill="#181818" points="434,915.25,424,919.25,434,923.25,430,919.25" style="stroke:#181818;stroke-width:1.0;"/><line style="stroke:#181818;stroke-width:1.0;stroke-dasharray:2.0,2.0;" x1="428" x2="687" y1="919.25" y2="919.25"/><text fill="#000000" font-family="sans-serif" font-size="13" lengthAdjust="spacing" textLength="126" x="440" y="914.3936">StateActionResponse</text><polygon fill="#181818" points="177,945.6016,167,949.6016,177,953.6016,173,949.6016" style="stroke:#181818;stroke-width:1.0;"/><line style="stroke:#181818;stroke-width:1.0;stroke-dasharray:2.0,2.0;" x1="171" x2="422" y1="949.6016" y2="949.6016"/><text fill="#000000" font-family="sans-serif" font-size="13" lengthAdjust="spacing" textLength="44" x="183" y="944.7451">200 OK</text><path d="M10,978.6016 L83,978.6016 L83,986.9531 L73,996.9531 L10,996.9531 L10,978.6016 " fill="#EEEEEE" style="stroke:#000000;stroke-width:1.5;"/><rect fill="none" height="677.4063" style="stroke:#000000;stroke-width:1.5;" width="1366.5" x="10" y="978.6016"/><text fill="#000000" font-family="sans-serif" font-size="13" font-weight="bold" lengthAdjust="spacing" textLength="28" x="25" y="993.0967">loop</text><text fill="#000000" font-family="sans-serif" font-size="11" font-weight="bold" lengthAdjust="spacing" textLength="109.4063" x="98" y="992.0205">[0..N &#27425;&#36861;&#21152;&#25937;&#21161;&#35760;&#24405;]</text><polygon fill="#181818" points="154,1015.3047,164,1019.3047,154,1023.3047,158,1019.3047" style="stroke:#181818;stroke-width:1.0;"/><line style="stroke:#181818;stroke-width:1.0;" x1="56" x2="160" y1="1019.3047" y2="1019.3047"/><text fill="#000000" font-family="sans-serif" font-size="13" lengthAdjust="spacing" textLength="78" x="63" y="1014.4482">&#22635;&#20889;&#25937;&#21161;&#36807;&#31243;</text><polygon fill="#181818" points="411,1045.6563,421,1049.6563,411,1053.6563,415,1049.6563" style="stroke:#181818;stroke-width:1.0;"/><line style="stroke:#181818;stroke-width:1.0;" x1="166" x2="417" y1="1049.6563" y2="1049.6563"/><text fill="#000000" font-family="sans-serif" font-size="13" lengthAdjust="spacing" textLength="233" x="173" y="1044.7998">POST /api/rescue-tasks/{taskId}/records</text><polygon fill="#181818" points="676,1076.0078,686,1080.0078,676,1084.0078,680,1080.0078" style="stroke:#181818;stroke-width:1.0;"/><line style="stroke:#181818;stroke-width:1.0;" x1="423" x2="682" y1="1080.0078" y2="1080.0078"/><text fill="#000000" font-family="sans-serif" font-size="13" lengthAdjust="spacing" textLength="241" x="430" y="1075.1514">addRecord(taskId, currentUserId, content)</text><polygon fill="#181818" points="1308.5,1106.3594,1318.5,1110.3594,1308.5,1114.3594,1312.5,1110.3594" style="stroke:#181818;stroke-width:1.0;"/><line style="stroke:#181818;stroke-width:1.0;" x1="688" x2="1314.5" y1="1110.3594" y2="1110.3594"/><text fill="#000000" font-family="sans-serif" font-size="13" lengthAdjust="spacing" textLength="40" x="695" y="1105.5029">BEGIN</text><polygon fill="#181818" points="877,1136.7109,887,1140.7109,877,1144.7109,881,1140.7109" style="stroke:#181818;stroke-width:1.0;"/><line style="stroke:#181818;stroke-width:1.0;" x1="688" x2="883" y1="1140.7109" y2="1140.7109"/><text fill="#000000" font-family="sans-serif" font-size="13" lengthAdjust="spacing" textLength="169" x="695" y="1135.8545">SELECT Task FOR UPDATE</text><polygon fill="#181818" points="1308.5,1167.0625,1318.5,1171.0625,1308.5,1175.0625,1312.5,1171.0625" style="stroke:#181818;stroke-width:1.0;"/><line style="stroke:#181818;stroke-width:1.0;" x1="889" x2="1314.5" y1="1171.0625" y2="1171.0625"/><text fill="#000000" font-family="sans-serif" font-size="13" lengthAdjust="spacing" textLength="153" x="896" y="1166.2061">SELECT ... FOR UPDATE</text><polygon fill="#181818" points="900,1197.4141,890,1201.4141,900,1205.4141,896,1201.4141" style="stroke:#181818;stroke-width:1.0;"/><line style="stroke:#181818;stroke-width:1.0;stroke-dasharray:2.0,2.0;" x1="894" x2="1319.5" y1="1201.4141" y2="1201.4141"/><text fill="#000000" font-family="sans-serif" font-size="13" lengthAdjust="spacing" textLength="68" x="906" y="1196.5576">Task / none</text><path d="M126.5,1216.4141 L187.5,1216.4141 L187.5,1224.7656 L177.5,1234.7656 L126.5,1234.7656 L126.5,1216.4141 " fill="#EEEEEE" style="stroke:#000000;stroke-width:1.5;"/><rect fill="none" height="432.5938" style="stroke:#000000;stroke-width:1.5;" width="1240" x="126.5" y="1216.4141"/><text fill="#000000" font-family="sans-serif" font-size="13" font-weight="bold" lengthAdjust="spacing" textLength="16" x="141.5" y="1230.9092">alt</text><text fill="#000000" font-family="sans-serif" font-size="11" font-weight="bold" lengthAdjust="spacing" textLength="123.4063" x="202.5" y="1229.833">[Task&#19981;&#23384;&#22312; / &#38750;&#36127;&#36131;&#20154;]</text><polygon fill="#181818" points="1308.5,1253.1172,1318.5,1257.1172,1308.5,1261.1172,1312.5,1257.1172" style="stroke:#181818;stroke-width:1.0;"/><line style="stroke:#181818;stroke-width:1.0;" x1="688" x2="1314.5" y1="1257.1172" y2="1257.1172"/><text fill="#000000" font-family="sans-serif" font-size="13" lengthAdjust="spacing" textLength="69" x="695" y="1252.2607">ROLLBACK</text><polygon fill="#181818" points="434,1283.4688,424,1287.4688,434,1291.4688,430,1287.4688" style="stroke:#181818;stroke-width:1.0;"/><line style="stroke:#181818;stroke-width:1.0;stroke-dasharray:2.0,2.0;" x1="428" x2="687" y1="1287.4688" y2="1287.4688"/><text fill="#000000" font-family="sans-serif" font-size="13" lengthAdjust="spacing" textLength="197" x="440" y="1282.6123">40401 RESOURCE_NOT_FOUND</text><line style="stroke:#000000;stroke-width:1.0;stroke-dasharray:2.0,2.0;" x1="126.5" x2="1366.5" y1="1296.4688" y2="1296.4688"/><text fill="#000000" font-family="sans-serif" font-size="11" font-weight="bold" lengthAdjust="spacing" textLength="131" x="131.5" y="1307.8877">[status != IN_PROGRESS]</text><polygon fill="#181818" points="1308.5,1329.6563,1318.5,1333.6563,1308.5,1337.6563,1312.5,1333.6563" style="stroke:#181818;stroke-width:1.0;"/><line style="stroke:#181818;stroke-width:1.0;" x1="688" x2="1314.5" y1="1333.6563" y2="1333.6563"/><text fill="#000000" font-family="sans-serif" font-size="13" lengthAdjust="spacing" textLength="69" x="695" y="1328.7998">ROLLBACK</text><polygon fill="#181818" points="434,1360.0078,424,1364.0078,434,1368.0078,430,1364.0078" style="stroke:#181818;stroke-width:1.0;"/><line style="stroke:#181818;stroke-width:1.0;stroke-dasharray:2.0,2.0;" x1="428" x2="687" y1="1364.0078" y2="1364.0078"/><text fill="#000000" font-family="sans-serif" font-size="13" lengthAdjust="spacing" textLength="222" x="440" y="1359.1514">40901 BUSINESS_STATE_CONFLICT</text><line style="stroke:#000000;stroke-width:1.0;stroke-dasharray:2.0,2.0;" x1="126.5" x2="1366.5" y1="1373.0078" y2="1373.0078"/><text fill="#000000" font-family="sans-serif" font-size="11" font-weight="bold" lengthAdjust="spacing" textLength="30.6875" x="131.5" y="1384.4268">[&#21512;&#27861;]</text><polygon fill="#181818" points="1035.5,1422.5469,1045.5,1426.5469,1035.5,1430.5469,1039.5,1426.5469" style="stroke:#181818;stroke-width:1.0;"/><line style="stroke:#181818;stroke-width:1.0;" x1="688" x2="1041.5" y1="1426.5469" y2="1426.5469"/><text fill="#000000" font-family="sans-serif" font-size="13" lengthAdjust="spacing" textLength="135" x="695" y="1405.3389">INSERT RescueRecord</text><text fill="#000000" font-family="sans-serif" font-size="13" lengthAdjust="spacing" textLength="142" x="695" y="1421.6904">recorderId=currentUserId</text><polygon fill="#181818" points="1308.5,1452.8984,1318.5,1456.8984,1308.5,1460.8984,1312.5,1456.8984" style="stroke:#181818;stroke-width:1.0;"/><line style="stroke:#181818;stroke-width:1.0;" x1="1047.5" x2="1314.5" y1="1456.8984" y2="1456.8984"/><text fill="#000000" font-family="sans-serif" font-size="13" lengthAdjust="spacing" textLength="46" x="1054.5" y="1452.042">INSERT</text><path d="M335.5,1471.8984 L416.5,1471.8984 L416.5,1480.25 L406.5,1490.25 L335.5,1490.25 L335.5,1471.8984 " fill="#EEEEEE" style="stroke:#000000;stroke-width:1.5;"/><rect fill="none" height="79.0547" style="stroke:#000000;stroke-width:1.5;" width="1021" x="335.5" y="1471.8984"/><text fill="#000000" font-family="sans-serif" font-size="13" font-weight="bold" lengthAdjust="spacing" textLength="36" x="350.5" y="1486.3936">break</text><text fill="#000000" font-family="sans-serif" font-size="11" font-weight="bold" lengthAdjust="spacing" textLength="110.0938" x="431.5" y="1485.3174">[&#20219;&#19968;&#25968;&#25454;&#24211;&#20889;&#20837;&#22833;&#36133;]</text><polygon fill="#181818" points="1308.5,1508.6016,1318.5,1512.6016,1308.5,1516.6016,1312.5,1512.6016" style="stroke:#181818;stroke-width:1.0;"/><line style="stroke:#181818;stroke-width:1.0;" x1="688" x2="1314.5" y1="1512.6016" y2="1512.6016"/><text fill="#000000" font-family="sans-serif" font-size="13" lengthAdjust="spacing" textLength="69" x="695" y="1507.7451">ROLLBACK</text><polygon fill="#181818" points="434,1538.9531,424,1542.9531,434,1546.9531,430,1542.9531" style="stroke:#181818;stroke-width:1.0;"/><line style="stroke:#181818;stroke-width:1.0;stroke-dasharray:2.0,2.0;" x1="428" x2="687" y1="1542.9531" y2="1542.9531"/><text fill="#000000" font-family="sans-serif" font-size="13" lengthAdjust="spacing" textLength="78" x="440" y="1538.0967">&#32479;&#19968;&#19994;&#21153;&#24322;&#24120;</text><polygon fill="#181818" points="1308.5,1576.3047,1318.5,1580.3047,1308.5,1584.3047,1312.5,1580.3047" style="stroke:#181818;stroke-width:1.0;"/><line style="stroke:#181818;stroke-width:1.0;" x1="688" x2="1314.5" y1="1580.3047" y2="1580.3047"/><text fill="#000000" font-family="sans-serif" font-size="13" lengthAdjust="spacing" textLength="51" x="695" y="1575.4482">COMMIT</text><polygon fill="#181818" points="434,1606.6563,424,1610.6563,434,1614.6563,430,1610.6563" style="stroke:#181818;stroke-width:1.0;"/><line style="stroke:#181818;stroke-width:1.0;stroke-dasharray:2.0,2.0;" x1="428" x2="687" y1="1610.6563" y2="1610.6563"/><text fill="#000000" font-family="sans-serif" font-size="13" lengthAdjust="spacing" textLength="143" x="440" y="1605.7998">RescueRecordResponse</text><polygon fill="#181818" points="177,1637.0078,167,1641.0078,177,1645.0078,173,1641.0078" style="stroke:#181818;stroke-width:1.0;"/><line style="stroke:#181818;stroke-width:1.0;stroke-dasharray:2.0,2.0;" x1="171" x2="422" y1="1641.0078" y2="1641.0078"/><text fill="#000000" font-family="sans-serif" font-size="13" lengthAdjust="spacing" textLength="70" x="183" y="1636.1514">201 Created</text><!--SRC=[lLNVJzjM57xtNt76qwP14YPUDeb9YMDOrYHcjYDU8aKclb2BpCviKrfLbG8JXQQWiNQPrWr6KM5bAwD5GrrAqlP_eRbEyiI_iEFhH74osCRBdgnxxdU-y_Exlgvh16PDqvanRtBsl6uKLKlz4kphgcOkwiOSpAe5ct2Sepi50Xb-939sNbzJp-ltQBr4dzvtAz_Iyg_qrSlMszUq_DW_jevUqDSLZbFpZcd1a2J8V4QGXa2rGI9sVe5O78PnzBnUL0q7XffFQxHyq7psF6ja33rQB38eVljXlg-YslEyQJYMMIWGYo7vot0oiMxeUS90ycMWb5eiTeYKr4KWYUHDIml096a09-ADwkYcaJJd0ZWncU8qrL5dL9l0KEgM_4MIsUCnZZDCXu1vWrXUdSCyz_cq0gsZlTRpfNUbfTR9B_IRFvlbbsvfoNrISdVswODra69H7jpjhzkFDjt7k-tVrhdcTyTqvP2k7DEZUtJbeFtm3JrQTzSsp-lhxjOX_UbDexhHNjsWUnlqk883UrTQveYXWHUSu-OiSw48mJboq1qGZ7pg9GQVG7Fv5LsjdPMsWi2pqZPYFG3YU4HDYR82ORMeXor6CE9WP-tmRU-JqEw4RGVxXIwyvo2Z0pEyxryFGtx1ieZXP6nY9RGFE0JA7Z0UGsHCc4oaknObXPQyQMYwrswr09cfU5GHiiRqPu8aWAwD-vHP8vgEWv-BbKDpNmJ_5bDm5kpnwMX2IQGdSx8IbPIiSNRt0IJIkIb9dCJ5bU53FrMYHRtyCNutBpyosl0qqarDdPqbUGHBvgBjbQ4Md3uRZ4C4pS5gBF8LvdWB_CJPPI2AB2G5Nc7MO1pBN8Gmpj4WFJQ6byHa4lVaMjVScSzOP2moYXvZaOyZetX7KDM3YOtsg71pqIcHbWL9WU1sPmrVpJabAb_3th2cvNmR3Y7OIcnae8-CswFj9kgJSym-On5r7XgrMgDQSYilt8qZUlgGtdr4L_RTjU_x4W3VJFUEMoVxpFdIweFrDsixoDse_aZBkxI-JAjL1a4nS0CDvCLKAg4Cj4_6LI7Hl9S32gHe6hRVTvuXVA5y58c0w4NsI1bnmJIB40c5qk0UxbxmG5wWDhhx30lieDwkDW_kNqrd5dkhxA3IL4tpNx2BrJRioSd1ux_Apbz5yDvCc12bdW3-jguG2eNw8S7TPGITvUr8n3FXMqL__u5k7U1TU_ldribEw-H9u_JqAWkEcoPc95x8fKKbDo5cql7khljYX_V6ON0f_mCrQWPY6JcHHXzlkHKXnulfYMI2APFnqyqrzuzAZn3_4Jq51VyZMSEVaTVx_bU9ENj-LvJ8_wo5O37_88PHu35bV5q2YlWB]--></g></svg>